<svg width="1587" height="703" viewBox="0 0 1587 703" fill="none" xmlns="http://www.w3.org/2000/svg">
<path fill-rule="evenodd" clip-rule="evenodd" d="M160.483 0H0V643H160.483V0ZM659.764 0H240.725V643H514.167L524.167 703H1357V160.75H1587L1560.25 0H820.247L825.239 30H664.756L659.764 0ZM433.792 160.75L412 30H664.756L766.753 643H514.167L487.375 482.25H576.848L523.353 160.75H433.792ZM433.792 160.75L487.375 482.25H240.725V160.75H433.792ZM825.239 30L846.994 160.75H1357V30H825.239ZM1283.87 241.125H1123.38V643H1283.87V241.125Z" fill="#382F26"/>
</svg>
